<svg width="136" height="139" viewBox="0 0 136 139" fill="none"
  xmlns="http://www.w3.org/2000/svg" style="padding-top: 3px;">
  <g filter="url(#filter0_d_0_1229)">
    <ellipse cx="67.9137" cy="66.5" rx="64.9137" ry="66.5" fill="#2A45C2"/>
  </g>
  <ellipse cx="67.9137" cy="63.5517" rx="64.9137" ry="63.5517" fill="#4664F4"/>
  <ellipse cx="67.9137" cy="63.5517" rx="64.9137" ry="63.5517" fill="url(#paint0_linear_0_1229)"/>
  <ellipse cx="67.9138" cy="64.8621" rx="49.8327" ry="49.7931" fill="#BABFD4"/>
  <ellipse cx="67.9138" cy="67.4828" rx="49.8327" ry="47.1724" fill="url(#paint1_linear_0_1229)"/>
  <path d="M87.276 51.9703C86.9088 51.8295 86.5264 51.7684 86.1736 51.7931C85.6637 51.8287 85.2519 52.0365 85.0079 52.3766C83.571 54.3969 82.3941 58.2121 81.4451 61.2776C81.0095 62.6953 80.4248 64.5925 80.0014 65.4929C79.5598 62.9702 80.0586 53.7294 80.2521 50.1706L80.2553 50.1132C80.3895 47.6407 80.4075 47.2072 80.3781 47.0167C80.1649 45.6605 79.6234 44.7702 78.7678 44.3717C77.903 43.9676 76.7797 44.1464 75.5697 44.8772C74.963 45.2454 74.7953 46.5092 74.2745 52.2378L74.2726 52.263C73.9859 55.4102 73.3259 62.6568 72.5138 63.8636C71.5975 62.1751 70.3368 52.5819 69.7926 48.4295C69.4118 45.5213 69.19 43.8515 69.041 43.3473C68.7271 42.2907 67.402 41.3917 66.09 41.3418C64.9979 41.2875 64.1018 41.845 63.6742 42.8138C62.8741 43.7073 63.1567 46.6707 64.0411 53.6893C64.4621 57.0296 65.3309 63.9294 64.7841 64.7034C63.6938 64.5844 61.8219 60.2625 59.2199 51.854C58.4899 49.4992 58.2639 48.7909 58.0397 48.4809C57.5977 47.401 56.0956 46.5681 54.7488 46.6622C54.6337 46.6702 54.5219 46.6852 54.4115 46.7063C53.7065 46.8469 52.0977 47.4981 52.4406 50.5038C53.3906 54.6708 54.4225 57.7303 55.4239 60.6999L55.4442 60.7593C56.0434 62.538 56.6098 64.2186 57.1361 66.0837C58.3768 70.4873 57.8944 73.2195 57.8885 73.2503C57.8472 73.5315 57.7607 73.7031 57.6306 73.7632C57.5838 73.7853 57.5237 73.7984 57.4561 73.8031C57.063 73.8306 56.4732 73.5694 56.1693 73.399C55.4751 72.0674 52.0186 65.7207 48.8865 64.8405L48.774 64.8072L48.6601 64.8177C47.5114 64.9266 46.6667 65.3624 46.1505 66.1128C45.3325 67.2994 45.6711 68.8107 45.7532 69.1137L45.7994 69.2224C45.825 69.2681 48.3367 73.8638 48.7254 76.0017C49.0606 77.8345 50.7949 79.821 52.1893 81.417L52.2467 81.482C52.7016 82.0042 53.0942 82.4555 53.4037 82.8733C57.4496 87.1087 63.8481 90.6712 63.9002 90.6999C64.6985 91.2912 65.1425 91.8624 65.1894 92.3542C65.219 92.6762 65.0525 92.8686 65.0466 92.8752L64.9073 93.021L65.7917 93.8838L82.6725 92.6935L83.3922 89.3836C85.6177 80.0354 85.1531 72.0648 85.1457 72.0116C85.1539 71.7183 85.7776 68.8823 86.2792 66.591L86.294 66.5327C87.2939 61.9681 88.5374 56.2883 88.7759 54.1281C88.8796 53.2044 88.2909 52.3559 87.276 51.9703Z" fill="#3B4262"/>
  <defs>
    <filter id="filter0_d_0_1229" x="0" y="0" width="135.827" height="139" filterUnits="userSpaceOnUse" color-interpolation-filters="sRGB">
      <feFlood flood-opacity="0" result="BackgroundImageFix"/>
      <feColorMatrix in="SourceAlpha" type="matrix" values="0 0 0 0 0 0 0 0 0 0 0 0 0 0 0 0 0 0 127 0" result="hardAlpha"/>
      <feOffset dy="3"/>
      <feGaussianBlur stdDeviation="1.5"/>
      <feColorMatrix type="matrix" values="0 0 0 0 0 0 0 0 0 0 0 0 0 0 0 0 0 0 0.196706 0"/>
      <feBlend mode="normal" in2="BackgroundImageFix" result="effect1_dropShadow_0_1229"/>
      <feBlend mode="normal" in="SourceGraphic" in2="effect1_dropShadow_0_1229" result="shape"/>
    </filter>
    <linearGradient id="paint0_linear_0_1229" x1="3" y1="0" x2="3" y2="127.103" gradientUnits="userSpaceOnUse">
      <stop stop-color="white" stop-opacity="0.0966455"/>
      <stop offset="1" stop-color="white" stop-opacity="0.01"/>
    </linearGradient>
    <linearGradient id="paint1_linear_0_1229" x1="116.921" y1="114.655" x2="116.921" y2="21.8741" gradientUnits="userSpaceOnUse">
      <stop stop-color="#F3F3F3"/>
      <stop offset="1" stop-color="#DADADA"/>
    </linearGradient>
  </defs>
</svg>
